<svg width="120" height="120" viewBox="0 0 120 120" fill="none" xmlns="http://www.w3.org/2000/svg">
<g clip-path="url(#clip0_22_599)">
<rect width="120" height="120" fill="#DDDDDD"/>
<path d="M0 6L2.69793 11.2866L8.55951 12.2188L4.36535 16.4184L5.29007 22.2812L0 19.59L-5.29007 22.2812L-4.36535 16.4184L-8.55951 12.2188L-2.69793 11.2866L0 6Z" fill="#D5D5D5"/>
<path d="M40 6L42.6979 11.2866L48.5595 12.2188L44.3653 16.4184L45.2901 22.2812L40 19.59L34.7099 22.2812L35.6347 16.4184L31.4405 12.2188L37.3021 11.2866L40 6Z" fill="#D5D5D5"/>
<path d="M80 6L82.6979 11.2866L88.5595 12.2188L84.3653 16.4184L85.2901 22.2812L80 19.59L74.7099 22.2812L75.6347 16.4184L71.4405 12.2188L77.3021 11.2866L80 6Z" fill="#D5D5D5"/>
<path d="M20 36L22.6979 41.2866L28.5595 42.2188L24.3653 46.4184L25.2901 52.2812L20 49.59L14.7099 52.2812L15.6347 46.4184L11.4405 42.2188L17.3021 41.2866L20 36Z" fill="#D5D5D5"/>
<path d="M60 36L62.6979 41.2866L68.5595 42.2188L64.3653 46.4184L65.2901 52.2812L60 49.59L54.7099 52.2812L55.6347 46.4184L51.4405 42.2188L57.3021 41.2866L60 36Z" fill="#D5D5D5"/>
<path d="M100 36L102.698 41.2866L108.56 42.2188L104.365 46.4184L105.29 52.2812L100 49.59L94.7099 52.2812L95.6347 46.4184L91.4405 42.2188L97.3021 41.2866L100 36Z" fill="#D5D5D5"/>
<path d="M0 66L2.69793 71.2866L8.55951 72.2188L4.36535 76.4184L5.29007 82.2812L0 79.59L-5.29007 82.2812L-4.36535 76.4184L-8.55951 72.2188L-2.69793 71.2866L0 66Z" fill="#D5D5D5"/>
<path d="M120 6L122.698 11.2866L128.56 12.2188L124.365 16.4184L125.29 22.2812L120 19.59L114.71 22.2812L115.635 16.4184L111.44 12.2188L117.302 11.2866L120 6Z" fill="#D5D5D5"/>
<path d="M120 66L122.698 71.2866L128.56 72.2188L124.365 76.4184L125.29 82.2812L120 79.59L114.71 82.2812L115.635 76.4184L111.44 72.2188L117.302 71.2866L120 66Z" fill="#D5D5D5"/>
<path d="M40 66L42.6979 71.2866L48.5595 72.2188L44.3653 76.4184L45.2901 82.2812L40 79.59L34.7099 82.2812L35.6347 76.4184L31.4405 72.2188L37.3021 71.2866L40 66Z" fill="#D5D5D5"/>
<path d="M80 66L82.6979 71.2866L88.5595 72.2188L84.3653 76.4184L85.2901 82.2812L80 79.59L74.7099 82.2812L75.6347 76.4184L71.4405 72.2188L77.3021 71.2866L80 66Z" fill="#D5D5D5"/>
<path d="M20 96L22.6979 101.287L28.5595 102.219L24.3653 106.418L25.2901 112.281L20 109.59L14.7099 112.281L15.6347 106.418L11.4405 102.219L17.3021 101.287L20 96Z" fill="#D5D5D5"/>
<path d="M60 96L62.6979 101.287L68.5595 102.219L64.3653 106.418L65.2901 112.281L60 109.59L54.7099 112.281L55.6347 106.418L51.4405 102.219L57.3021 101.287L60 96Z" fill="#D5D5D5"/>
<path d="M100 96L102.698 101.287L108.56 102.219L104.365 106.418L105.29 112.281L100 109.59L94.7099 112.281L95.6347 106.418L91.4405 102.219L97.3021 101.287L100 96Z" fill="#D5D5D5"/>
</g>
<defs>
<clipPath id="clip0_22_599">
<rect width="120" height="120" fill="white"/>
</clipPath>
</defs>
</svg>
