<svg width="120" height="120" viewBox="0 0 120 120" fill="none" xmlns="http://www.w3.org/2000/svg">
<g clip-path="url(#clip0_38_975)">
<rect width="120" height="120" fill="#B3B3B3"/>
<path d="M31.9215 19.7321C31.8841 19.822 31.8241 19.9118 31.7493 19.9867C31.4274 20.3086 30.9107 20.3086 30.5888 19.9867C30.5215 19.9194 30.4691 19.8444 30.4316 19.762C29.915 20.0316 29.2636 19.9493 28.8368 19.5149C28.3503 19.0284 28.3053 18.2721 28.702 17.7404C28.5448 17.6879 28.395 17.6056 28.2677 17.4783C27.8708 17.0814 27.8484 16.46 28.1929 16.0332C26.9425 15.3743 25.5124 15 24 15C19.0283 15 15 19.0282 15 24C15 28.9717 19.0282 33 24 33C28.9717 33 33 28.9718 33 24C32.9923 22.4578 32.6031 21.0052 31.9217 19.7323L31.9215 19.7321ZM17.9498 22.5026C17.538 22.5026 17.2086 22.1732 17.2086 21.7615C17.2086 21.3497 17.538 21.0203 17.9498 21.0203C18.3616 21.0203 18.691 21.3497 18.691 21.7615C18.6911 22.173 18.3617 22.5026 17.9498 22.5026ZM21.0123 29.8102C20.533 29.8102 20.1511 29.4284 20.1511 28.9491C20.1511 28.4698 20.533 28.0879 21.0123 28.0879C21.4916 28.0879 21.8734 28.4698 21.8734 28.9491C21.8733 29.4208 21.4841 29.8102 21.0123 29.8102ZM22.5097 18.5191C22.5097 18.1372 22.8167 17.8302 23.1986 17.8302C23.5804 17.8302 23.8874 18.1372 23.8874 18.5191C23.8874 18.901 23.5804 19.208 23.1986 19.208C22.8167 19.208 22.5097 18.9009 22.5097 18.5191ZM23.4906 24.5618C23.0113 24.5618 22.6294 24.1799 22.6294 23.7006C22.6294 23.2213 23.0113 22.8395 23.4906 22.8395C23.9699 22.8395 24.3517 23.2213 24.3517 23.7006C24.3516 24.1799 23.9699 24.5618 23.4906 24.5618ZM27.1595 29.803C26.8376 29.803 26.5755 29.5409 26.5755 29.219C26.5755 28.8971 26.8376 28.635 27.1595 28.635C27.4814 28.635 27.7435 28.8971 27.7435 29.219C27.7435 29.5409 27.4814 29.803 27.1595 29.803ZM29.2035 24.9213C28.7242 24.9213 28.3423 24.5394 28.3423 24.0602C28.3423 23.5809 28.7242 23.199 29.2035 23.199C29.6827 23.199 30.0646 23.5809 30.0646 24.0602C30.0646 24.5394 29.6752 24.9213 29.2035 24.9213Z" fill="white" fill-opacity="0.12"/>
<path d="M49.9215 55.7321C49.8841 55.822 49.8241 55.9118 49.7493 55.9867C49.4274 56.3086 48.9107 56.3086 48.5888 55.9867C48.5215 55.9194 48.4691 55.8444 48.4316 55.762C47.915 56.0316 47.2636 55.9493 46.8368 55.5149C46.3503 55.0284 46.3053 54.2721 46.702 53.7404C46.5448 53.6879 46.395 53.6056 46.2677 53.4783C45.8708 53.0814 45.8484 52.46 46.1929 52.0332C44.9425 51.3743 43.5124 51 42 51C37.0283 51 33 55.0282 33 60C33 64.9717 37.0282 69 42 69C46.9717 69 51 64.9718 51 60C50.9923 58.4578 50.6031 57.0052 49.9217 55.7323L49.9215 55.7321ZM35.9498 58.5026C35.538 58.5026 35.2086 58.1732 35.2086 57.7615C35.2086 57.3497 35.538 57.0203 35.9498 57.0203C36.3616 57.0203 36.691 57.3497 36.691 57.7615C36.6911 58.173 36.3617 58.5026 35.9498 58.5026ZM39.0123 65.8102C38.533 65.8102 38.1511 65.4284 38.1511 64.9491C38.1511 64.4698 38.533 64.0879 39.0123 64.0879C39.4916 64.0879 39.8734 64.4698 39.8734 64.9491C39.8733 65.4208 39.4841 65.8102 39.0123 65.8102ZM40.5097 54.5191C40.5097 54.1372 40.8167 53.8302 41.1986 53.8302C41.5804 53.8302 41.8874 54.1372 41.8874 54.5191C41.8874 54.901 41.5804 55.208 41.1986 55.208C40.8167 55.208 40.5097 54.9009 40.5097 54.5191ZM41.4906 60.5618C41.0113 60.5618 40.6294 60.1799 40.6294 59.7006C40.6294 59.2213 41.0113 58.8395 41.4906 58.8395C41.9699 58.8395 42.3517 59.2213 42.3517 59.7006C42.3516 60.1799 41.9699 60.5618 41.4906 60.5618ZM45.1595 65.803C44.8376 65.803 44.5755 65.5409 44.5755 65.219C44.5755 64.8971 44.8376 64.635 45.1595 64.635C45.4814 64.635 45.7435 64.8971 45.7435 65.219C45.7435 65.5409 45.4814 65.803 45.1595 65.803ZM47.2035 60.9213C46.7242 60.9213 46.3423 60.5394 46.3423 60.0602C46.3423 59.5809 46.7242 59.199 47.2035 59.199C47.6827 59.199 48.0646 59.5809 48.0646 60.0602C48.0646 60.5394 47.6752 60.9213 47.2035 60.9213Z" fill="white" fill-opacity="0.12"/>
<path d="M13.9215 55.7321C13.8841 55.822 13.8241 55.9118 13.7493 55.9867C13.4274 56.3086 12.9107 56.3086 12.5888 55.9867C12.5215 55.9194 12.4691 55.8444 12.4316 55.762C11.915 56.0316 11.2636 55.9493 10.8368 55.5149C10.3503 55.0284 10.3053 54.2721 10.702 53.7404C10.5448 53.6879 10.395 53.6056 10.2677 53.4783C9.87078 53.0814 9.84841 52.46 10.1929 52.0332C8.9425 51.3743 7.5124 51 6 51C1.02829 51 -3 55.0282 -3 60C-3 64.9717 1.0282 69 6 69C10.9717 69 15 64.9718 15 60C14.9923 58.4578 14.6031 57.0052 13.9217 55.7323L13.9215 55.7321ZM-0.0502065 58.5026C-0.461974 58.5026 -0.791366 58.1732 -0.791366 57.7615C-0.791366 57.3497 -0.46195 57.0203 -0.0502065 57.0203C0.361561 57.0203 0.690953 57.3497 0.690953 57.7615C0.691141 58.173 0.361729 58.5026 -0.0502065 58.5026ZM3.01229 65.8102C2.53302 65.8102 2.15113 65.4284 2.15113 64.9491C2.15113 64.4698 2.533 64.0879 3.01229 64.0879C3.49155 64.0879 3.87344 64.4698 3.87344 64.9491C3.87326 65.4208 3.48405 65.8102 3.01229 65.8102ZM4.50967 54.5191C4.50967 54.1372 4.81671 53.8302 5.19856 53.8302C5.58043 53.8302 5.88744 54.1372 5.88744 54.5191C5.88744 54.901 5.58041 55.208 5.19856 55.208C4.81669 55.208 4.50967 54.9009 4.50967 54.5191ZM5.49058 60.5618C5.01132 60.5618 4.62943 60.1799 4.62943 59.7006C4.62943 59.2213 5.0113 58.8395 5.49058 58.8395C5.96987 58.8395 6.35174 59.2213 6.35174 59.7006C6.35155 60.1799 5.96987 60.5618 5.49058 60.5618ZM9.15946 65.803C8.83757 65.803 8.57546 65.5409 8.57546 65.219C8.57546 64.8971 8.83756 64.635 9.15946 64.635C9.48136 64.635 9.74346 64.8971 9.74346 65.219C9.74346 65.5409 9.48136 65.803 9.15946 65.803ZM11.2035 60.9213C10.7242 60.9213 10.3423 60.5394 10.3423 60.0602C10.3423 59.5809 10.7242 59.199 11.2035 59.199C11.6827 59.199 12.0646 59.5809 12.0646 60.0602C12.0646 60.5394 11.6752 60.9213 11.2035 60.9213Z" fill="white" fill-opacity="0.12"/>
<path d="M31.9215 91.7321C31.8841 91.822 31.8241 91.9118 31.7493 91.9867C31.4274 92.3086 30.9107 92.3086 30.5888 91.9867C30.5215 91.9194 30.4691 91.8444 30.4316 91.762C29.915 92.0316 29.2636 91.9493 28.8368 91.5149C28.3503 91.0284 28.3053 90.2721 28.702 89.7404C28.5448 89.6879 28.395 89.6056 28.2677 89.4783C27.8708 89.0814 27.8484 88.46 28.1929 88.0332C26.9425 87.3743 25.5124 87 24 87C19.0283 87 15 91.0282 15 96C15 100.972 19.0282 105 24 105C28.9717 105 33 100.972 33 96C32.9923 94.4578 32.6031 93.0052 31.9217 91.7323L31.9215 91.7321ZM17.9498 94.5026C17.538 94.5026 17.2086 94.1732 17.2086 93.7615C17.2086 93.3497 17.538 93.0203 17.9498 93.0203C18.3616 93.0203 18.691 93.3497 18.691 93.7615C18.6911 94.173 18.3617 94.5026 17.9498 94.5026ZM21.0123 101.81C20.533 101.81 20.1511 101.428 20.1511 100.949C20.1511 100.47 20.533 100.088 21.0123 100.088C21.4916 100.088 21.8734 100.47 21.8734 100.949C21.8733 101.421 21.4841 101.81 21.0123 101.81ZM22.5097 90.5191C22.5097 90.1372 22.8167 89.8302 23.1986 89.8302C23.5804 89.8302 23.8874 90.1372 23.8874 90.5191C23.8874 90.901 23.5804 91.208 23.1986 91.208C22.8167 91.208 22.5097 90.9009 22.5097 90.5191ZM23.4906 96.5618C23.0113 96.5618 22.6294 96.1799 22.6294 95.7006C22.6294 95.2213 23.0113 94.8395 23.4906 94.8395C23.9699 94.8395 24.3517 95.2213 24.3517 95.7006C24.3516 96.1799 23.9699 96.5618 23.4906 96.5618ZM27.1595 101.803C26.8376 101.803 26.5755 101.541 26.5755 101.219C26.5755 100.897 26.8376 100.635 27.1595 100.635C27.4814 100.635 27.7435 100.897 27.7435 101.219C27.7435 101.541 27.4814 101.803 27.1595 101.803ZM29.2035 96.9213C28.7242 96.9213 28.3423 96.5394 28.3423 96.0602C28.3423 95.5809 28.7242 95.199 29.2035 95.199C29.6827 95.199 30.0646 95.5809 30.0646 96.0602C30.0646 96.5394 29.6752 96.9213 29.2035 96.9213Z" fill="white" fill-opacity="0.12"/>
<path d="M67.9215 19.7321C67.8841 19.822 67.8241 19.9118 67.7493 19.9867C67.4274 20.3086 66.9107 20.3086 66.5888 19.9867C66.5215 19.9194 66.4691 19.8444 66.4316 19.762C65.915 20.0316 65.2636 19.9493 64.8368 19.5149C64.3503 19.0284 64.3053 18.2721 64.702 17.7404C64.5448 17.6879 64.395 17.6056 64.2677 17.4783C63.8708 17.0814 63.8484 16.46 64.1929 16.0332C62.9425 15.3743 61.5124 15 60 15C55.0283 15 51 19.0282 51 24C51 28.9717 55.0282 33 60 33C64.9717 33 69 28.9718 69 24C68.9923 22.4578 68.6031 21.0052 67.9217 19.7323L67.9215 19.7321ZM53.9498 22.5026C53.538 22.5026 53.2086 22.1732 53.2086 21.7615C53.2086 21.3497 53.538 21.0203 53.9498 21.0203C54.3616 21.0203 54.691 21.3497 54.691 21.7615C54.6911 22.173 54.3617 22.5026 53.9498 22.5026ZM57.0123 29.8102C56.533 29.8102 56.1511 29.4284 56.1511 28.9491C56.1511 28.4698 56.533 28.0879 57.0123 28.0879C57.4916 28.0879 57.8734 28.4698 57.8734 28.9491C57.8733 29.4208 57.4841 29.8102 57.0123 29.8102ZM58.5097 18.5191C58.5097 18.1372 58.8167 17.8302 59.1986 17.8302C59.5804 17.8302 59.8874 18.1372 59.8874 18.5191C59.8874 18.901 59.5804 19.208 59.1986 19.208C58.8167 19.208 58.5097 18.9009 58.5097 18.5191ZM59.4906 24.5618C59.0113 24.5618 58.6294 24.1799 58.6294 23.7006C58.6294 23.2213 59.0113 22.8395 59.4906 22.8395C59.9699 22.8395 60.3517 23.2213 60.3517 23.7006C60.3516 24.1799 59.9699 24.5618 59.4906 24.5618ZM63.1595 29.803C62.8376 29.803 62.5755 29.5409 62.5755 29.219C62.5755 28.8971 62.8376 28.635 63.1595 28.635C63.4814 28.635 63.7435 28.8971 63.7435 29.219C63.7435 29.5409 63.4814 29.803 63.1595 29.803ZM65.2035 24.9213C64.7242 24.9213 64.3423 24.5394 64.3423 24.0602C64.3423 23.5809 64.7242 23.199 65.2035 23.199C65.6827 23.199 66.0646 23.5809 66.0646 24.0602C66.0646 24.5394 65.6752 24.9213 65.2035 24.9213Z" fill="white" fill-opacity="0.12"/>
<path d="M85.9215 55.7321C85.8841 55.822 85.8241 55.9118 85.7493 55.9867C85.4274 56.3086 84.9107 56.3086 84.5888 55.9867C84.5215 55.9194 84.4691 55.8444 84.4316 55.762C83.915 56.0316 83.2636 55.9493 82.8368 55.5149C82.3503 55.0284 82.3053 54.2721 82.702 53.7404C82.5448 53.6879 82.395 53.6056 82.2677 53.4783C81.8708 53.0814 81.8484 52.46 82.1929 52.0332C80.9425 51.3743 79.5124 51 78 51C73.0283 51 69 55.0282 69 60C69 64.9717 73.0282 69 78 69C82.9717 69 87 64.9718 87 60C86.9923 58.4578 86.6031 57.0052 85.9217 55.7323L85.9215 55.7321ZM71.9498 58.5026C71.538 58.5026 71.2086 58.1732 71.2086 57.7615C71.2086 57.3497 71.538 57.0203 71.9498 57.0203C72.3616 57.0203 72.691 57.3497 72.691 57.7615C72.6911 58.173 72.3617 58.5026 71.9498 58.5026ZM75.0123 65.8102C74.533 65.8102 74.1511 65.4284 74.1511 64.9491C74.1511 64.4698 74.533 64.0879 75.0123 64.0879C75.4916 64.0879 75.8734 64.4698 75.8734 64.9491C75.8733 65.4208 75.4841 65.8102 75.0123 65.8102ZM76.5097 54.5191C76.5097 54.1372 76.8167 53.8302 77.1986 53.8302C77.5804 53.8302 77.8874 54.1372 77.8874 54.5191C77.8874 54.901 77.5804 55.208 77.1986 55.208C76.8167 55.208 76.5097 54.9009 76.5097 54.5191ZM77.4906 60.5618C77.0113 60.5618 76.6294 60.1799 76.6294 59.7006C76.6294 59.2213 77.0113 58.8395 77.4906 58.8395C77.9699 58.8395 78.3517 59.2213 78.3517 59.7006C78.3516 60.1799 77.9699 60.5618 77.4906 60.5618ZM81.1595 65.803C80.8376 65.803 80.5755 65.5409 80.5755 65.219C80.5755 64.8971 80.8376 64.635 81.1595 64.635C81.4814 64.635 81.7435 64.8971 81.7435 65.219C81.7435 65.5409 81.4814 65.803 81.1595 65.803ZM83.2035 60.9213C82.7242 60.9213 82.3423 60.5394 82.3423 60.0602C82.3423 59.5809 82.7242 59.199 83.2035 59.199C83.6827 59.199 84.0646 59.5809 84.0646 60.0602C84.0646 60.5394 83.6752 60.9213 83.2035 60.9213Z" fill="white" fill-opacity="0.12"/>
<path d="M67.9215 91.7321C67.8841 91.822 67.8241 91.9118 67.7493 91.9867C67.4274 92.3086 66.9107 92.3086 66.5888 91.9867C66.5215 91.9194 66.4691 91.8444 66.4316 91.762C65.915 92.0316 65.2636 91.9493 64.8368 91.5149C64.3503 91.0284 64.3053 90.2721 64.702 89.7404C64.5448 89.6879 64.395 89.6056 64.2677 89.4783C63.8708 89.0814 63.8484 88.46 64.1929 88.0332C62.9425 87.3743 61.5124 87 60 87C55.0283 87 51 91.0282 51 96C51 100.972 55.0282 105 60 105C64.9717 105 69 100.972 69 96C68.9923 94.4578 68.6031 93.0052 67.9217 91.7323L67.9215 91.7321ZM53.9498 94.5026C53.538 94.5026 53.2086 94.1732 53.2086 93.7615C53.2086 93.3497 53.538 93.0203 53.9498 93.0203C54.3616 93.0203 54.691 93.3497 54.691 93.7615C54.6911 94.173 54.3617 94.5026 53.9498 94.5026ZM57.0123 101.81C56.533 101.81 56.1511 101.428 56.1511 100.949C56.1511 100.47 56.533 100.088 57.0123 100.088C57.4916 100.088 57.8734 100.47 57.8734 100.949C57.8733 101.421 57.4841 101.81 57.0123 101.81ZM58.5097 90.5191C58.5097 90.1372 58.8167 89.8302 59.1986 89.8302C59.5804 89.8302 59.8874 90.1372 59.8874 90.5191C59.8874 90.901 59.5804 91.208 59.1986 91.208C58.8167 91.208 58.5097 90.9009 58.5097 90.5191ZM59.4906 96.5618C59.0113 96.5618 58.6294 96.1799 58.6294 95.7006C58.6294 95.2213 59.0113 94.8395 59.4906 94.8395C59.9699 94.8395 60.3517 95.2213 60.3517 95.7006C60.3516 96.1799 59.9699 96.5618 59.4906 96.5618ZM63.1595 101.803C62.8376 101.803 62.5755 101.541 62.5755 101.219C62.5755 100.897 62.8376 100.635 63.1595 100.635C63.4814 100.635 63.7435 100.897 63.7435 101.219C63.7435 101.541 63.4814 101.803 63.1595 101.803ZM65.2035 96.9213C64.7242 96.9213 64.3423 96.5394 64.3423 96.0602C64.3423 95.5809 64.7242 95.199 65.2035 95.199C65.6827 95.199 66.0646 95.5809 66.0646 96.0602C66.0646 96.5394 65.6752 96.9213 65.2035 96.9213Z" fill="white" fill-opacity="0.12"/>
<path d="M103.922 19.7321C103.884 19.822 103.824 19.9118 103.749 19.9867C103.427 20.3086 102.911 20.3086 102.589 19.9867C102.522 19.9194 102.469 19.8444 102.432 19.762C101.915 20.0316 101.264 19.9493 100.837 19.5149C100.35 19.0284 100.305 18.2721 100.702 17.7404C100.545 17.6879 100.395 17.6056 100.268 17.4783C99.8708 17.0814 99.8484 16.46 100.193 16.0332C98.9425 15.3743 97.5124 15 96 15C91.0283 15 87 19.0282 87 24C87 28.9717 91.0282 33 96 33C100.972 33 105 28.9718 105 24C104.992 22.4578 104.603 21.0052 103.922 19.7323L103.922 19.7321ZM89.9498 22.5026C89.538 22.5026 89.2086 22.1732 89.2086 21.7615C89.2086 21.3497 89.538 21.0203 89.9498 21.0203C90.3616 21.0203 90.691 21.3497 90.691 21.7615C90.6911 22.173 90.3617 22.5026 89.9498 22.5026ZM93.0123 29.8102C92.533 29.8102 92.1511 29.4284 92.1511 28.9491C92.1511 28.4698 92.533 28.0879 93.0123 28.0879C93.4916 28.0879 93.8734 28.4698 93.8734 28.9491C93.8733 29.4208 93.4841 29.8102 93.0123 29.8102ZM94.5097 18.5191C94.5097 18.1372 94.8167 17.8302 95.1986 17.8302C95.5804 17.8302 95.8874 18.1372 95.8874 18.5191C95.8874 18.901 95.5804 19.208 95.1986 19.208C94.8167 19.208 94.5097 18.9009 94.5097 18.5191ZM95.4906 24.5618C95.0113 24.5618 94.6294 24.1799 94.6294 23.7006C94.6294 23.2213 95.0113 22.8395 95.4906 22.8395C95.9699 22.8395 96.3517 23.2213 96.3517 23.7006C96.3516 24.1799 95.9699 24.5618 95.4906 24.5618ZM99.1595 29.803C98.8376 29.803 98.5755 29.5409 98.5755 29.219C98.5755 28.8971 98.8376 28.635 99.1595 28.635C99.4814 28.635 99.7435 28.8971 99.7435 29.219C99.7435 29.5409 99.4814 29.803 99.1595 29.803ZM101.203 24.9213C100.724 24.9213 100.342 24.5394 100.342 24.0602C100.342 23.5809 100.724 23.199 101.203 23.199C101.683 23.199 102.065 23.5809 102.065 24.0602C102.065 24.5394 101.675 24.9213 101.203 24.9213Z" fill="white" fill-opacity="0.12"/>
<path d="M121.922 55.7321C121.884 55.822 121.824 55.9118 121.749 55.9867C121.427 56.3086 120.911 56.3086 120.589 55.9867C120.522 55.9194 120.469 55.8444 120.432 55.762C119.915 56.0316 119.264 55.9493 118.837 55.5149C118.35 55.0284 118.305 54.2721 118.702 53.7404C118.545 53.6879 118.395 53.6056 118.268 53.4783C117.871 53.0814 117.848 52.46 118.193 52.0332C116.942 51.3743 115.512 51 114 51C109.028 51 105 55.0282 105 60C105 64.9717 109.028 69 114 69C118.972 69 123 64.9718 123 60C122.992 58.4578 122.603 57.0052 121.922 55.7323L121.922 55.7321ZM107.95 58.5026C107.538 58.5026 107.209 58.1732 107.209 57.7615C107.209 57.3497 107.538 57.0203 107.95 57.0203C108.362 57.0203 108.691 57.3497 108.691 57.7615C108.691 58.173 108.362 58.5026 107.95 58.5026ZM111.012 65.8102C110.533 65.8102 110.151 65.4284 110.151 64.9491C110.151 64.4698 110.533 64.0879 111.012 64.0879C111.492 64.0879 111.873 64.4698 111.873 64.9491C111.873 65.4208 111.484 65.8102 111.012 65.8102ZM112.51 54.5191C112.51 54.1372 112.817 53.8302 113.199 53.8302C113.58 53.8302 113.887 54.1372 113.887 54.5191C113.887 54.901 113.58 55.208 113.199 55.208C112.817 55.208 112.51 54.9009 112.51 54.5191ZM113.491 60.5618C113.011 60.5618 112.629 60.1799 112.629 59.7006C112.629 59.2213 113.011 58.8395 113.491 58.8395C113.97 58.8395 114.352 59.2213 114.352 59.7006C114.352 60.1799 113.97 60.5618 113.491 60.5618ZM117.159 65.803C116.838 65.803 116.575 65.5409 116.575 65.219C116.575 64.8971 116.838 64.635 117.159 64.635C117.481 64.635 117.743 64.8971 117.743 65.219C117.743 65.5409 117.481 65.803 117.159 65.803ZM119.203 60.9213C118.724 60.9213 118.342 60.5394 118.342 60.0602C118.342 59.5809 118.724 59.199 119.203 59.199C119.683 59.199 120.065 59.5809 120.065 60.0602C120.065 60.5394 119.675 60.9213 119.203 60.9213Z" fill="white" fill-opacity="0.12"/>
<path d="M103.922 91.7321C103.884 91.822 103.824 91.9118 103.749 91.9867C103.427 92.3086 102.911 92.3086 102.589 91.9867C102.522 91.9194 102.469 91.8444 102.432 91.762C101.915 92.0316 101.264 91.9493 100.837 91.5149C100.35 91.0284 100.305 90.2721 100.702 89.7404C100.545 89.6879 100.395 89.6056 100.268 89.4783C99.8708 89.0814 99.8484 88.46 100.193 88.0332C98.9425 87.3743 97.5124 87 96 87C91.0283 87 87 91.0282 87 96C87 100.972 91.0282 105 96 105C100.972 105 105 100.972 105 96C104.992 94.4578 104.603 93.0052 103.922 91.7323L103.922 91.7321ZM89.9498 94.5026C89.538 94.5026 89.2086 94.1732 89.2086 93.7615C89.2086 93.3497 89.538 93.0203 89.9498 93.0203C90.3616 93.0203 90.691 93.3497 90.691 93.7615C90.6911 94.173 90.3617 94.5026 89.9498 94.5026ZM93.0123 101.81C92.533 101.81 92.1511 101.428 92.1511 100.949C92.1511 100.47 92.533 100.088 93.0123 100.088C93.4916 100.088 93.8734 100.47 93.8734 100.949C93.8733 101.421 93.4841 101.81 93.0123 101.81ZM94.5097 90.5191C94.5097 90.1372 94.8167 89.8302 95.1986 89.8302C95.5804 89.8302 95.8874 90.1372 95.8874 90.5191C95.8874 90.901 95.5804 91.208 95.1986 91.208C94.8167 91.208 94.5097 90.9009 94.5097 90.5191ZM95.4906 96.5618C95.0113 96.5618 94.6294 96.1799 94.6294 95.7006C94.6294 95.2213 95.0113 94.8395 95.4906 94.8395C95.9699 94.8395 96.3517 95.2213 96.3517 95.7006C96.3516 96.1799 95.9699 96.5618 95.4906 96.5618ZM99.1595 101.803C98.8376 101.803 98.5755 101.541 98.5755 101.219C98.5755 100.897 98.8376 100.635 99.1595 100.635C99.4814 100.635 99.7435 100.897 99.7435 101.219C99.7435 101.541 99.4814 101.803 99.1595 101.803ZM101.203 96.9213C100.724 96.9213 100.342 96.5394 100.342 96.0602C100.342 95.5809 100.724 95.199 101.203 95.199C101.683 95.199 102.065 95.5809 102.065 96.0602C102.065 96.5394 101.675 96.9213 101.203 96.9213Z" fill="white" fill-opacity="0.12"/>
</g>
<defs>
<clipPath id="clip0_38_975">
<rect width="120" height="120" fill="white"/>
</clipPath>
</defs>
</svg>
