<svg xmlns="http://www.w3.org/2000/svg" width="120" height="120" fill="none"><g clip-path="url(#a)"><path fill="#79B554" d="M0 0h120v120H0z"/><circle r="6" fill="#016D47" fill-opacity=".2"/><circle cx="24" r="6" fill="#016D47" fill-opacity=".2"/><circle cy="24" r="6" fill="#016D47" fill-opacity=".2"/><circle cx="24" cy="24" r="6" fill="#016D47" fill-opacity=".2"/><circle cx="48" r="6" fill="#016D47" fill-opacity=".2"/><circle cx="72" r="6" fill="#016D47" fill-opacity=".2"/><circle cx="48" cy="24" r="6" fill="#016D47" fill-opacity=".2"/><circle cx="72" cy="24" r="6" fill="#016D47" fill-opacity=".2"/><circle cy="48" r="6" fill="#016D47" fill-opacity=".2"/><circle cx="24" cy="48" r="6" fill="#016D47" fill-opacity=".2"/><circle cy="72" r="6" fill="#016D47" fill-opacity=".2"/><circle cx="24" cy="72" r="6" fill="#016D47" fill-opacity=".2"/><circle cx="96" r="6" fill="#016D47" fill-opacity=".2"/><circle cx="120" r="6" fill="#016D47" fill-opacity=".2"/><circle cx="96" cy="24" r="6" fill="#016D47" fill-opacity=".2"/><circle cx="120" cy="24" r="6" fill="#016D47" fill-opacity=".2"/><circle cx="96" cy="48" r="6" fill="#016D47" fill-opacity=".2"/><circle cx="120" cy="48" r="6" fill="#016D47" fill-opacity=".2"/><circle cx="96" cy="72" r="6" fill="#016D47" fill-opacity=".2"/><circle cx="120" cy="72" r="6" fill="#016D47" fill-opacity=".2"/><circle cx="48" cy="48" r="6" fill="#016D47" fill-opacity=".2"/><circle cx="72" cy="48" r="6" fill="#016D47" fill-opacity=".2"/><circle cx="48" cy="72" r="6" fill="#016D47" fill-opacity=".2"/><circle cx="72" cy="72" r="6" fill="#016D47" fill-opacity=".2"/><circle cy="96" r="6" fill="#016D47" fill-opacity=".2"/><circle cx="24" cy="96" r="6" fill="#016D47" fill-opacity=".2"/><circle cy="120" r="6" fill="#016D47" fill-opacity=".2"/><circle cx="24" cy="120" r="6" fill="#016D47" fill-opacity=".2"/><circle cx="96" cy="96" r="6" fill="#016D47" fill-opacity=".2"/><circle cx="120" cy="96" r="6" fill="#016D47" fill-opacity=".2"/><circle cx="96" cy="120" r="6" fill="#016D47" fill-opacity=".2"/><circle cx="120" cy="120" r="6" fill="#016D47" fill-opacity=".2"/><circle cx="48" cy="96" r="6" fill="#016D47" fill-opacity=".2"/><circle cx="72" cy="96" r="6" fill="#016D47" fill-opacity=".2"/><circle cx="48" cy="120" r="6" fill="#016D47" fill-opacity=".2"/><circle cx="72" cy="120" r="6" fill="#016D47" fill-opacity=".2"/></g><defs><clipPath id="a"><path fill="#fff" d="M0 0h120v120H0z"/></clipPath></defs></svg>